<svg width="28" height="28" viewBox="0 0 28 28" fill="none" xmlns="http://www.w3.org/2000/svg">
<circle cx="14" cy="14" r="14" fill="#095E11"/>
<path d="M21.9021 12.5688H15.4309V6.09774C15.4309 5.30959 14.788 4.66663 13.9998 4.66663C13.2117 4.66663 12.5687 5.30959 12.5687 6.09774V12.5688H6.09762C5.30947 12.5688 4.6665 13.2118 4.6665 14C4.6665 14.7881 5.30947 15.4311 6.09762 15.4311H12.5687V21.9022C12.5687 22.6903 13.2117 23.3333 13.9998 23.3333C14.788 23.3333 15.4309 22.6903 15.4309 21.9022V15.4311H21.9021C22.6902 15.4311 23.3332 14.7881 23.3332 14C23.3332 13.2118 22.6902 12.5688 21.9021 12.5688Z" fill="white"/>
</svg>
