<svg width="28" height="28" viewBox="0 0 28 28" fill="none" xmlns="http://www.w3.org/2000/svg">
<circle cx="14" cy="14" r="14" fill="#095E11"/>
<path d="M21.9021 12.5687H15.4309V6.09762C15.4309 5.30947 14.788 4.6665 13.9998 4.6665C13.2117 4.6665 12.5687 5.30947 12.5687 6.09762V12.5687H6.09762C5.30947 12.5687 4.6665 13.2117 4.6665 13.9998C4.6665 14.788 5.30947 15.4309 6.09762 15.4309H12.5687V21.9021C12.5687 22.6902 13.2117 23.3332 13.9998 23.3332C14.788 23.3332 15.4309 22.6902 15.4309 21.9021V15.4309H21.9021C22.6902 15.4309 23.3332 14.788 23.3332 13.9998C23.3332 13.2117 22.6902 12.5687 21.9021 12.5687Z" fill="white"/>
</svg>
