<svg width="20" height="20" viewBox="0 0 20 20" fill="none" xmlns="http://www.w3.org/2000/svg">
<path d="M0.704102 3.61441V2.2915H19.2249V19.4894H0.704102V3.61441Z" stroke="black" stroke-width="0.5" stroke-linecap="round" stroke-linejoin="round"/>
<path d="M0.704102 4.9375H19.2249" stroke="black" stroke-width="0.5" stroke-linecap="round" stroke-linejoin="round"/>
<path d="M13.9333 2.29166V0.96875H16.5792V2.29166" stroke="black" stroke-width="0.5" stroke-linecap="round" stroke-linejoin="round"/>
<path d="M3.34985 2.29166V0.96875H5.99569V2.29166" stroke="black" stroke-width="0.5" stroke-linecap="round" stroke-linejoin="round"/>
<path d="M6.08398 7.33997V8.48294H7.58329V7.0542H6.08398V7.33997Z" fill="black" stroke="black" stroke-width="0.553172" stroke-linecap="round" stroke-linejoin="round"/>
<path d="M9.08252 7.33997V8.48294H10.5818V7.0542H9.08252V7.33997Z" fill="black" stroke="black" stroke-width="0.553172" stroke-linecap="round" stroke-linejoin="round"/>
<path d="M12.0813 7.33997V8.48294H13.5806V7.0542H12.0813V7.33997Z" fill="black" stroke="black" stroke-width="0.553172" stroke-linecap="round" stroke-linejoin="round"/>
<path d="M15.0798 7.33997V8.48294H16.5791V7.0542H15.0798V7.33997Z" fill="black" stroke="black" stroke-width="0.553172" stroke-linecap="round" stroke-linejoin="round"/>
<path d="M3.08545 10.1974V11.3404H4.58476V9.91162H3.08545V10.1974Z" fill="black" stroke="black" stroke-width="0.553172" stroke-linecap="round" stroke-linejoin="round"/>
<path d="M6.08398 10.1974V11.3404H7.58329V9.91162H6.08398V10.1974Z" fill="black" stroke="black" stroke-width="0.553172" stroke-linecap="round" stroke-linejoin="round"/>
<path d="M9.08252 10.1974V11.3404H10.5818V9.91162H9.08252V10.1974Z" fill="black" stroke="black" stroke-width="0.553172" stroke-linecap="round" stroke-linejoin="round"/>
<path d="M12.0813 10.1974V11.3404H13.5806V9.91162H12.0813V10.1974Z" fill="black" stroke="black" stroke-width="0.553172" stroke-linecap="round" stroke-linejoin="round"/>
<path d="M15.0798 10.1974V11.3404H16.5791V9.91162H15.0798V10.1974Z" fill="black" stroke="black" stroke-width="0.553172" stroke-linecap="round" stroke-linejoin="round"/>
<path d="M3.08545 13.0548V14.1978H4.58475V12.769H3.08545V13.0548Z" fill="black" stroke="black" stroke-width="0.553172" stroke-linecap="round" stroke-linejoin="round"/>
<path d="M6.08398 13.0548V14.1978H7.58329V12.769H6.08398V13.0548Z" fill="black" stroke="black" stroke-width="0.553172" stroke-linecap="round" stroke-linejoin="round"/>
<path d="M9.08252 13.0548V14.1978H10.5818V12.769H9.08252V13.0548Z" stroke="black" stroke-width="0.553172" stroke-linecap="round" stroke-linejoin="round"/>
<path d="M12.0813 13.0548V14.1978H13.5806V12.769H12.0813V13.0548Z" stroke="black" stroke-width="0.553172" stroke-linecap="round" stroke-linejoin="round"/>
<path d="M15.0798 13.0548V14.1978H16.5791V12.769H15.0798V13.0548Z" stroke="black" stroke-width="0.553172" stroke-linecap="round" stroke-linejoin="round"/>
<path d="M3.08545 15.9122V17.0552H4.58475V15.6265H3.08545V15.9122Z" stroke="black" stroke-width="0.553172" stroke-linecap="round" stroke-linejoin="round"/>
<path d="M6.08398 15.9122V17.0552H7.58329V15.6265H6.08398V15.9122Z" stroke="black" stroke-width="0.553172" stroke-linecap="round" stroke-linejoin="round"/>
<path d="M9.08252 15.9122V17.0552H10.5818V15.6265H9.08252V15.9122Z" stroke="black" stroke-width="0.553172" stroke-linecap="round" stroke-linejoin="round"/>
<path d="M12.0813 15.9122V17.0552H13.5806V15.6265H12.0813V15.9122Z" stroke="black" stroke-width="0.553172" stroke-linecap="round" stroke-linejoin="round"/>
</svg>
