<svg width="20" height="20" viewBox="0 0 20 20" fill="none" xmlns="http://www.w3.org/2000/svg">
<path d="M1.85 0H18.15C19.175 0 20 0.85 20 1.85V18.15C20 19.175 19.175 20 18.15 20H1.85C0.85 20 0 19.175 0 18.15V1.85C0 0.85 0.85 0 1.85 0ZM10 8.825L14.125 4.7L15.3 5.875L11.175 10L15.3 14.125L14.125 15.3L10 11.175L5.875 15.3L4.7 14.125L8.825 10L4.7 5.875L5.875 4.7L10 8.825ZM18.15 0.5H1.85C1.1 0.5 0.5 1.1 0.5 1.85V18.15C0.5 18.9 1.1 19.525 1.85 19.525H18.15C18.9 19.525 19.525 18.9 19.525 18.15V1.85C19.525 1.1 18.9 0.5 18.15 0.5Z" fill="black"/>
</svg>
