<svg width="16" height="17" viewBox="0 0 16 17" fill="none" xmlns="http://www.w3.org/2000/svg">
<path d="M2.20154 16.0464C2.14928 16.0464 2.09543 16.0345 2.04633 16.0108C1.91012 15.9447 1.82142 15.8007 1.82142 15.6398V11.8586H1.29083C0.578103 11.8586 0 11.2385 0 10.4779V1.38068C0 0.618341 0.579687 0 1.29083 0H14.7092C15.4219 0 16 0.620035 16 1.38068V10.4762C16 11.2385 15.4203 11.8569 14.7092 11.8569H6.74876L2.45496 15.943C2.38369 16.0108 2.29341 16.0464 2.20154 16.0464ZM1.29083 0.81316C0.997822 0.81316 0.760246 1.06727 0.760246 1.38068V10.4762C0.760246 10.7896 0.997822 11.0437 1.29083 11.0437H2.20154C2.4122 11.0437 2.58167 11.225 2.58167 11.4503V14.7334L6.35122 11.1471C6.42091 11.081 6.51119 11.0437 6.60463 11.0437H14.7108C15.0038 11.0437 15.2413 10.7896 15.2413 10.4762V1.38068C15.2413 1.06727 15.0038 0.81316 14.7108 0.81316H1.29083Z" fill="black"/>
<path d="M13.2741 3.60369H2.7146C2.50394 3.60369 2.33447 3.42242 2.33447 3.19711C2.33447 2.97179 2.50394 2.79053 2.7146 2.79053H13.2725C13.4832 2.79053 13.6526 2.97179 13.6526 3.19711C13.6526 3.42242 13.4832 3.60369 13.2741 3.60369Z" fill="black"/>
<path d="M13.2741 6.3366H2.7146C2.50394 6.3366 2.33447 6.15533 2.33447 5.93002C2.33447 5.7047 2.50394 5.52344 2.7146 5.52344H13.2725C13.4832 5.52344 13.6526 5.7047 13.6526 5.93002C13.6526 6.15533 13.4832 6.3366 13.2741 6.3366Z" fill="black"/>
<path d="M13.2741 9.06755H2.7146C2.50394 9.06755 2.33447 8.88629 2.33447 8.66097C2.33447 8.43566 2.50394 8.25439 2.7146 8.25439H13.2725C13.4832 8.25439 13.6526 8.43566 13.6526 8.66097C13.6526 8.88629 13.4832 9.06755 13.2741 9.06755Z" fill="black"/>
</svg>
