<svg width="15" height="16" viewBox="0 0 15 16" fill="none" xmlns="http://www.w3.org/2000/svg">
<path d="M4.82143 0.894454V1.78891H2.41071H0V3.31306V4.83721H0.493622H0.985332V10.068C0.985332 13.2473 0.985332 15.9728 0.985332 15.9814C0.983418 15.9957 2.74936 16 7.49043 16C12.2277 16 13.9994 15.9957 14.0051 15.9814C14.0108 15.9671 14.0089 4.88301 14.0051 4.84723C14.0051 4.8415 14.229 4.83721 14.5026 4.83721H15V3.31306V1.78891H12.5893H10.1786V0.894454V0H7.5H4.82143V0.894454ZM8.76275 1.41681V1.7746H7.5H6.23725V1.41681V1.05903H7.5H8.76275V1.41681ZM13.5842 3.3059V3.77817H7.5H1.41582V3.3059V2.83363H7.5H13.5842V3.3059ZM12.5893 5.039C12.5893 5.09195 12.6923 10.068 12.6923 13.2473C12.6923 13.7772 12.6923 14.3071 12.6923 14.9553H7.5H2.90816H2.22596C2.22596 14.9309 2.30769 12.7174 2.30769 10.5978C2.30769 8.47827 2.40115 6.35871 2.40115 5.82881V4.98032H7.49426H12.5893V5.039Z" fill="#6E1111"/>
</svg>
