<svg width="20" height="20" viewBox="0 0 20 20" fill="none" xmlns="http://www.w3.org/2000/svg">
<rect opacity="0.1" width="20" height="20" rx="10" fill="#FFA756"/>
<path d="M10 13.4663H13.9" stroke="#FFA756" stroke-width="1.5" stroke-linecap="round" stroke-linejoin="round"/>
<path d="M11.9496 6.3166C12.122 6.14421 12.3558 6.04736 12.5996 6.04736C12.7203 6.04736 12.8399 6.07114 12.9514 6.11734C13.0629 6.16353 13.1642 6.23124 13.2496 6.3166C13.335 6.40196 13.4027 6.5033 13.4489 6.61482C13.4951 6.72635 13.5188 6.84589 13.5188 6.9666C13.5188 7.08732 13.4951 7.20685 13.4489 7.31838C13.4027 7.42991 13.335 7.53124 13.2496 7.6166L7.83294 13.0333L6.09961 13.4666L6.53294 11.7333L11.9496 6.3166Z" stroke="#FFA756" stroke-width="1.5" stroke-linecap="round" stroke-linejoin="round"/>
</svg>
