<svg width="32" height="27" viewBox="0 0 32 27" fill="none" xmlns="http://www.w3.org/2000/svg">
<path d="M31.1279 26.1983C31.104 26.1319 28.7553 19.5577 29.8147 16.2703C29.843 16.2042 29.8581 16.1334 29.8581 16.059C29.8581 16.0444 29.8577 16.0298 29.8562 16.0152V12.6111C29.8573 12.5633 29.8522 12.5161 29.8408 12.4708C29.818 12.378 29.771 12.2933 29.7057 12.2207C29.6422 12.1499 29.5603 12.0906 29.4637 12.0478C29.4141 12.0257 29.3609 12.0081 29.3054 11.9963C23.7268 10.6635 17.5548 5.67906 16.534 4.83144V4.15329C17.2306 3.80817 17.9793 3.96087 19.0714 4.22499C19.7614 4.39228 20.4833 4.58563 21.2324 4.55056C25.232 4.36372 25.0054 0.387926 24.8266 0.2644C24.6481 0.140874 21.2768 1.24733 18.7695 0.143978C17.6154 -0.364092 15.0651 0.612011 15.0651 0.917722V0.92455C15.0651 0.933551 15.0651 0.942551 15.0651 0.951552V3.82896C15.0651 3.83206 15.0651 3.83517 15.0651 3.83796V4.96087C13.8486 6.05429 8.35225 10.7473 2.31831 11.991C2.25845 12.0022 2.2019 12.0195 2.14866 12.0419C2.05061 12.0832 1.96652 12.1418 1.90116 12.2123C1.83433 12.2837 1.78586 12.3678 1.76126 12.4593C1.74804 12.5081 1.74179 12.5586 1.74326 12.6099V16.0146C1.74216 16.0292 1.74143 16.0437 1.74143 16.0586C1.74143 16.1248 1.75391 16.1884 1.77631 16.248C2.76703 19.658 0.494025 26.1356 0.470891 26.2005C0.404059 26.3883 0.446656 26.5922 0.585093 26.7495C0.72353 26.9072 0.942017 27 1.17409 27H30.4258C30.6586 27 30.8774 26.9066 31.0159 26.7486C31.1543 26.5906 31.1958 26.3864 31.1279 26.1983ZM16.534 1.3572C16.9805 1.23026 17.6521 1.11294 18.2459 1.30382C19.9391 1.85037 21.4009 1.98725 23.1933 1.73647C22.9168 2.47918 22.3035 3.28892 21.1993 3.31003C20.6617 3.31903 20.0871 3.18029 19.476 3.03194C18.8569 2.88203 18.1614 2.7135 17.441 2.7135C17.1417 2.7135 16.838 2.74268 16.534 2.81437V1.3572ZM28.3878 15.919C28.383 15.9435 28.3764 15.9677 28.3764 15.9928C28.3764 16.0931 28.2985 16.2169 28.1685 16.3234C27.8895 16.5518 27.4404 16.6757 26.9263 16.662C25.8309 16.6331 25.4439 16.1964 25.3286 16.0112V13.2182H28.3878V15.919ZM16.3504 15.9969V13.2182H19.7379V16.1114C19.7379 16.1133 19.7379 16.1148 19.7379 16.1167C19.7379 16.1185 19.7379 16.1201 19.7379 16.122C19.7379 16.2868 19.0978 16.6617 18.0443 16.6617C17.0102 16.6617 16.3746 16.3045 16.3511 16.1369C16.3537 16.1145 16.3551 16.0906 16.3559 16.0658C16.3562 16.0425 16.3544 16.0195 16.3504 15.9969ZM15.2436 16.0757C15.2418 16.0909 15.241 16.1064 15.241 16.1217C15.241 16.2865 14.6065 16.6614 13.5618 16.6614C12.5494 16.6614 12.0195 16.3032 12.0195 16.1114C12.0195 16.0763 12.0148 16.0419 12.006 16.009V13.2182H15.2488V15.9938C15.2447 16.0174 15.2429 16.0413 15.2432 16.0652L15.2436 16.0757ZM7.37217 13.2182H10.9047V15.9916C10.6965 16.234 10.1721 16.6757 9.14651 16.6617C8.01001 16.6477 7.53815 16.1992 7.37217 15.9736V13.2182ZM20.8395 16.112V13.2185H24.227V16.1117C24.227 16.2486 23.61 16.6617 22.4879 16.6617C21.4171 16.6617 20.8395 16.2824 20.8395 16.112C20.8395 16.1123 20.8395 16.1123 20.8395 16.112ZM15.8888 6.03412C16.534 6.55739 17.7046 7.47018 19.1911 8.48229H12.7767C14.2007 7.47577 15.2873 6.56515 15.8888 6.03412ZM11.3946 9.41339H20.6114C22.0491 10.3197 23.6776 11.2365 25.373 11.977H6.56175C8.3416 11.2387 9.98044 10.3215 11.3946 9.41339ZM6.27055 13.2182V16.0934C6.27055 16.2861 5.72231 16.6617 4.71727 16.6617C3.75041 16.6617 3.2231 16.207 3.22274 15.9547L3.21172 15.7247V13.2185L6.27055 13.2182ZM12.5861 25.7588C13.8684 24.4308 15.0633 22.1716 15.7882 20.6397C16.5387 22.1701 17.7667 24.4305 19.042 25.7588H12.5861ZM20.5049 25.7588C19.4283 25.0503 17.5772 22.0348 16.2927 19.1949C16.2112 19.0146 16.0063 18.8954 15.7783 18.8954C15.7772 18.8954 15.7757 18.8954 15.7742 18.8954C15.5447 18.8969 15.3398 19.0183 15.2609 19.2008C14.0326 22.0382 12.2087 25.0509 11.096 25.7588H2.14095C2.65357 24.1245 3.69937 20.3349 3.44967 17.3824C3.81431 17.514 4.24137 17.5931 4.7169 17.5931C5.65989 17.5931 6.45856 17.3429 6.92638 16.9475C7.36005 17.2694 8.05554 17.5798 9.12999 17.5931C10.1931 17.6127 10.9007 17.2793 11.3509 16.9466C11.8154 17.342 12.6155 17.5931 13.5614 17.5931C14.4971 17.5931 15.2969 17.3727 15.7952 17.0199C16.296 17.3727 17.1013 17.5931 18.0439 17.5931C18.9638 17.5931 19.7665 17.3706 20.2729 17.018C20.7653 17.3721 21.5588 17.5931 22.4875 17.5931C23.3791 17.5931 24.2901 17.3672 24.8321 16.9627C25.2783 17.3045 25.9554 17.5683 26.8914 17.5928C26.9274 17.5937 26.9634 17.5943 26.999 17.5943C27.3989 17.5943 27.78 17.5338 28.1208 17.4221C27.8638 20.3302 28.9294 24.1207 29.453 25.7588H20.5049Z" fill="black"/>
</svg>
