<svg width="30" height="19" viewBox="0 0 30 19" fill="none" xmlns="http://www.w3.org/2000/svg">
<path d="M29.1007 4.89457C29.1007 4.05891 28.421 3.37891 27.585 3.37891C26.749 3.37891 26.0693 4.05891 26.0693 4.89457C26.0693 5.73057 26.749 6.41057 27.585 6.41057C28.4207 6.41057 29.1007 5.73057 29.1007 4.89457ZM26.7477 4.89457C26.7477 4.43291 27.1233 4.05724 27.585 4.05724C28.0467 4.05724 28.4223 4.43291 28.4223 4.89457C28.4223 5.35624 28.0467 5.73191 27.585 5.73191C27.1233 5.73191 26.7477 5.35624 26.7477 4.89457Z" fill="black"/>
<path d="M28.203 6.82374H26.966C26.598 6.82374 26.2563 6.93574 25.971 7.12607C25.5863 6.68507 25.022 6.40474 24.392 6.40474H22.901C22.551 6.40474 22.2213 6.49207 21.931 6.64441C21.5013 6.23741 20.923 5.98574 20.2857 5.98574H18.5407C18.2337 5.98574 17.941 6.04574 17.6713 6.15141C17.2113 5.78641 16.631 5.56641 15.9993 5.56641H14.0003C13.3687 5.56641 12.7883 5.78641 12.3283 6.15141C12.0583 6.04574 11.7657 5.98574 11.4587 5.98574H9.71367C9.07633 5.98574 8.498 6.23741 8.06833 6.64441C7.778 6.49207 7.44833 6.40474 7.09833 6.40474H5.60733C4.97767 6.40474 4.41333 6.68507 4.02867 7.12641C3.74333 6.93607 3.40133 6.82407 3.03367 6.82407H1.797C0.806 6.82374 0 7.62974 0 8.62074V11.1701C0 11.6541 0.331333 12.0621 0.779333 12.1784V13.9824C0.779333 14.5571 1.24667 15.0244 1.82167 15.0244H3.00933C3.584 15.0244 4.05167 14.5571 4.05167 13.9824V12.5661C4.172 12.6447 4.306 12.7041 4.451 12.7347V14.9641C4.451 15.6184 4.983 16.1507 5.63733 16.1507H7.06967C7.724 16.1507 8.256 15.6184 8.256 14.9641V13.2454C8.309 13.2621 8.362 13.2791 8.41767 13.2891V15.9464C8.41767 16.6801 9.01467 17.2774 9.74867 17.2774H11.4247C11.911 17.2774 12.3327 17.0124 12.565 16.6217V16.9284C12.565 17.7421 13.227 18.4037 14.0403 18.4037H15.9607C16.774 18.4037 17.436 17.7421 17.436 16.9284V16.6224C17.6683 17.0124 18.09 17.2774 18.576 17.2774H20.252C20.9857 17.2774 21.583 16.6804 21.583 15.9464V13.2894C21.6387 13.2797 21.6917 13.2624 21.745 13.2457V14.9644C21.745 15.6187 22.277 16.1511 22.9313 16.1511H24.3633C25.0177 16.1511 25.55 15.6187 25.55 14.9644V12.7351C25.695 12.7044 25.829 12.6451 25.9493 12.5664V13.9827C25.9493 14.5574 26.4167 15.0247 26.9913 15.0247H28.1793C28.7537 15.0247 29.2213 14.5574 29.2213 13.9827V12.1791C29.6683 12.0621 30 11.6541 30 11.1701V8.62074C30 7.62974 29.194 6.82374 28.203 6.82374ZM3.373 13.9824C3.373 14.1827 3.20967 14.3461 3.00933 14.3461H1.82167C1.62133 14.3461 1.458 14.1827 1.458 13.9824V11.5337H1.042C0.841667 11.5337 0.678667 11.3707 0.678667 11.1701V8.62074C0.678667 8.00374 1.18033 7.50207 1.797 7.50207H3.03367C3.27033 7.50207 3.489 7.57674 3.67 7.70274C3.568 7.94907 3.511 8.21841 3.511 8.50141V11.5341H3.373V13.9824ZM7.57733 14.9644C7.57733 15.2444 7.34933 15.4724 7.06933 15.4724H5.637C5.357 15.4724 5.129 15.2444 5.129 14.9644V12.0824H4.69733C4.41733 12.0824 4.18933 11.8544 4.18933 11.5744V8.50141C4.18933 7.71941 4.82533 7.08341 5.60733 7.08341H7.09833C7.28933 7.08341 7.471 7.12241 7.63733 7.19107C7.435 7.54241 7.31733 7.94841 7.31733 8.38207V11.9791C7.31733 12.2717 7.41633 12.5401 7.577 12.7601L7.57733 14.9644ZM12.0767 15.9467C12.0767 16.3064 11.784 16.5991 11.4243 16.5991H9.74833C9.38867 16.5991 9.096 16.3064 9.096 15.9467V12.6311H8.64867C8.289 12.6311 7.996 12.3384 7.996 11.9787V8.38141C7.996 7.43441 8.76667 6.66374 9.71367 6.66374H11.4587C11.5783 6.66374 11.6947 6.67641 11.8073 6.69974C11.492 7.14107 11.3047 7.67941 11.3047 8.26174V12.3827C11.3047 12.9414 11.6173 13.4281 12.0767 13.6784V15.9467ZM17.22 13.1797H16.757V16.9287C16.757 17.3681 16.3997 17.7254 15.9603 17.7254H14.04C13.6007 17.7254 13.2433 17.3681 13.2433 16.9287V13.1797H12.78C12.3407 13.1797 11.9833 12.8224 11.9833 12.3831V8.26207C11.9833 7.14974 12.8883 6.24474 14.0007 6.24474H15.9997C17.112 6.24474 18.017 7.14974 18.017 8.26207V12.3827C18.0167 12.8221 17.6593 13.1797 17.22 13.1797ZM21.3513 12.6311H20.9037V15.9467C20.9037 16.3064 20.611 16.5991 20.2513 16.5991H18.5753C18.2157 16.5991 17.923 16.3064 17.923 15.9467V13.6787C18.3823 13.4284 18.6953 12.9421 18.6953 12.3831V8.26207C18.6953 7.67941 18.5077 7.14107 18.1923 6.69974C18.305 6.67641 18.4213 6.66374 18.5407 6.66374H20.2857C21.233 6.66374 22.0033 7.43441 22.0033 8.38141V11.9784C22.0037 12.3384 21.7113 12.6311 21.3513 12.6311ZM25.8103 11.5744C25.8103 11.8544 25.5823 12.0824 25.3023 12.0824H24.8707V14.9644C24.8707 15.2444 24.6427 15.4724 24.3623 15.4724H22.9303C22.6503 15.4724 22.4223 15.2444 22.4223 14.9644V12.7591C22.583 12.5391 22.6817 12.2711 22.6817 11.9784V8.38141C22.6817 7.94774 22.564 7.54174 22.3617 7.19041C22.528 7.12174 22.7097 7.08274 22.9007 7.08274H24.3917C25.174 7.08274 25.81 7.71874 25.81 8.50074L25.8103 11.5744ZM29.3213 11.1701C29.3213 11.3704 29.1583 11.5337 28.958 11.5337H28.542V13.9824C28.542 14.1827 28.379 14.3461 28.1787 14.3461H26.9907C26.7903 14.3461 26.6273 14.1827 26.6273 13.9824V11.5337H26.4893V8.50107C26.4893 8.21841 26.4323 7.94874 26.3303 7.70241C26.511 7.57674 26.73 7.50207 26.9663 7.50207H28.2033C28.8203 7.50207 29.3217 8.00374 29.3217 8.62074L29.3213 11.1701Z" fill="black"/>
<path d="M23.6463 5.76891C24.6153 5.76891 25.404 4.98057 25.404 4.01157C25.404 3.04257 24.6157 2.25391 23.6463 2.25391C22.6773 2.25391 21.8887 3.04224 21.8887 4.01157C21.8887 4.98091 22.6773 5.76891 23.6463 5.76891ZM23.6463 2.93257C24.2413 2.93257 24.7253 3.41657 24.7253 4.01157C24.7253 4.60657 24.2413 5.09057 23.6463 5.09057C23.0513 5.09057 22.5673 4.60657 22.5673 4.01157C22.5673 3.41657 23.0513 2.93257 23.6463 2.93257Z" fill="black"/>
<path d="M19.4134 5.12367C20.5157 5.12367 21.4124 4.227 21.4124 3.12433C21.4124 2.02167 20.5157 1.125 19.4134 1.125C18.3107 1.125 17.4141 2.022 17.4141 3.12433C17.4141 4.22667 18.3107 5.12367 19.4134 5.12367ZM19.4134 1.80333C20.1417 1.80333 20.7341 2.396 20.7341 3.12433C20.7341 3.85267 20.1417 4.445 19.4134 4.445C18.6851 4.445 18.0924 3.85233 18.0924 3.12433C18.0924 2.396 18.6851 1.80333 19.4134 1.80333Z" fill="black"/>
<path d="M3.93108 4.89457C3.93108 4.05891 3.25141 3.37891 2.41541 3.37891C1.57941 3.37891 0.899414 4.05891 0.899414 4.89457C0.899414 5.73057 1.57941 6.41057 2.41541 6.41057C3.25141 6.41057 3.93108 5.73057 3.93108 4.89457ZM1.57775 4.89457C1.57775 4.43291 1.95341 4.05724 2.41541 4.05724C2.87708 4.05724 3.25275 4.43291 3.25275 4.89457C3.25275 5.35624 2.87708 5.73191 2.41541 5.73191C1.95341 5.73191 1.57775 5.35624 1.57775 4.89457Z" fill="black"/>
<path d="M8.11104 4.01157C8.11104 3.04257 7.3227 2.25391 6.35337 2.25391C5.38404 2.25391 4.5957 3.04224 4.5957 4.01157C4.5957 4.98091 5.38404 5.76891 6.35337 5.76891C7.3227 5.76891 8.11104 4.98057 8.11104 4.01157ZM5.27437 4.01157C5.27437 3.41657 5.75837 2.93257 6.35337 2.93257C6.94837 2.93257 7.43237 3.41657 7.43237 4.01157C7.43237 4.60657 6.94837 5.09057 6.35337 5.09057C5.75837 5.09057 5.27437 4.60657 5.27437 4.01157Z" fill="black"/>
<path d="M12.5852 3.12433C12.5852 2.022 11.6886 1.125 10.5862 1.125C9.48358 1.125 8.58691 2.022 8.58691 3.12433C8.58691 4.22667 9.48358 5.12367 10.5862 5.12367C11.6886 5.12367 12.5852 4.22667 12.5852 3.12433ZM9.26558 3.12433C9.26558 2.396 9.85825 1.80333 10.5866 1.80333C11.3149 1.80333 11.9072 2.396 11.9072 3.12433C11.9072 3.85267 11.3149 4.445 10.5866 4.445C9.85825 4.445 9.26558 3.85267 9.26558 3.12433Z" fill="black"/>
<path d="M17.2411 2.241C17.2411 1.00533 16.2358 0 15.0001 0C13.7645 0 12.7588 1.00533 12.7588 2.241C12.7588 3.47667 13.7645 4.482 15.0001 4.482C16.2358 4.482 17.2411 3.47667 17.2411 2.241ZM13.4375 2.241C13.4375 1.37933 14.1385 0.678333 15.0001 0.678333C15.8615 0.678333 16.5625 1.37933 16.5625 2.241C16.5625 3.10267 15.8615 3.80333 15.0001 3.80333C14.1385 3.80333 13.4375 3.10233 13.4375 2.241Z" fill="black"/>
</svg>
