<svg width="23" height="25" viewBox="0 0 23 25" fill="none" xmlns="http://www.w3.org/2000/svg">
<path d="M11.8212 24.8612L11.7531 24.7979L11.685 24.8612L11.6808 24.8651L3.92393 17.6518C3.92393 17.6518 3.92393 17.6518 3.92392 17.6518C1.80582 15.6817 1.80583 12.4912 3.92392 10.5216C4.9843 9.53549 6.37568 9.04141 7.76831 9.04141C9.16093 9.04141 10.5523 9.53549 11.6127 10.5216L11.685 10.5888L11.7531 10.6522L11.8212 10.5888L11.8935 10.5216C12.9539 9.53549 14.3453 9.04141 15.7379 9.04141C17.1306 9.04141 18.5219 9.53549 19.5823 10.5216C21.7004 12.4917 21.7004 15.6821 19.5823 17.6518L11.8254 24.8651L11.8212 24.8612ZM11.7578 23.2364L11.8259 23.2997L11.894 23.2364L18.7293 16.8792C19.5297 16.1349 19.9724 15.1433 19.9724 14.0871C19.9724 13.0314 19.5297 12.0393 18.7293 11.295C17.9291 10.5509 16.8663 10.1419 15.7375 10.1419C14.6091 10.1419 13.5458 10.5509 12.7456 11.295L12.6733 11.3623L11.7531 12.218L10.8329 11.3623L10.7606 11.295C10.7606 11.295 10.7606 11.295 10.7606 11.295C9.9604 10.5505 8.89713 10.1419 7.76835 10.1415H7.76831C6.63991 10.1415 5.57664 10.5505 4.77649 11.2946C3.12172 12.8334 3.12172 15.3404 4.77649 16.8792L4.84459 16.806L4.77649 16.8792L11.6132 23.2364L11.6812 23.2997L11.7493 23.2364L11.7536 23.2325L11.7578 23.2364Z" fill="black" stroke="black" stroke-width="0.2"/>
<path d="M13.2664 3.49063C13.2664 4.15235 12.6773 4.71026 11.9474 4.71026C11.2174 4.71026 10.6283 4.15235 10.6283 3.49063V1.31963C10.6283 0.657907 11.2174 0.1 11.9474 0.1C12.6773 0.1 13.2664 0.657907 13.2664 1.31963V3.49063Z" fill="black" stroke="black" stroke-width="0.2"/>
<path d="M20.49 3.16517L20.49 3.16517L20.4907 3.16424C20.914 2.61318 21.7222 2.49084 22.3214 2.88664C22.5829 3.09015 22.7891 3.36608 22.83 3.67004C22.872 3.98261 22.7887 4.29652 22.5755 4.57443L21.2029 6.3188C20.9462 6.63687 20.5624 6.83451 20.1367 6.83451C19.832 6.83451 19.5853 6.75339 19.4266 6.60586L19.4207 6.60031L19.4139 6.5958C18.8203 6.20151 18.6958 5.45891 19.1171 4.91002L20.49 3.16517Z" fill="black" stroke="black" stroke-width="0.2"/>
<path d="M3.55587 6.5958L3.55579 6.59568L3.55151 6.59886C3.34199 6.75474 3.08894 6.83451 2.78723 6.83451C2.36159 6.83451 1.97779 6.63687 1.72105 6.3188L0.348502 4.57443C-0.0727211 4.02553 0.0517225 3.28293 0.645309 2.88865C1.24482 2.49043 2.05505 2.61225 2.47905 3.16424L2.47904 3.16425L2.47976 3.16517L3.85268 4.91002C4.27391 5.45891 4.14946 6.20151 3.55587 6.5958Z" fill="black" stroke="black" stroke-width="0.2"/>
</svg>
