<svg width="104" height="99" viewBox="0 0 104 99" fill="none" xmlns="http://www.w3.org/2000/svg">
<path fill-rule="evenodd" clip-rule="evenodd" d="M4.84598 87.4678H66.6715C67.2686 87.4678 67.7464 87.976 67.7464 88.6112C67.7464 89.2465 67.2686 89.7545 66.6715 89.7545H4.84598C2.65641 89.7545 0.904755 87.849 0.904755 85.5621V11.8355C0.904755 9.50639 2.69622 7.6431 4.84598 7.6431H16.0326V5.69513C16.0326 3.36605 17.8242 1.50276 19.974 1.50276C22.2829 1.50276 24.0345 3.40833 24.0345 5.69513V7.6431H72.0857V4.29763C72.0857 1.96855 73.8771 0.105263 76.0269 0.105263C78.336 0.105263 80.0876 2.01095 80.0876 4.29763V7.6431H91.3142C93.5037 7.6431 95.2554 9.54866 95.2554 11.8355V58.4598C95.2554 59.0951 94.7776 59.6033 94.1804 59.6033C93.5833 59.6033 93.1056 59.0951 93.1056 58.4598V23.2692H3.05451V85.5621C3.05451 86.6208 3.85072 87.4678 4.84598 87.4678ZM74.2753 4.29763V11.8779C74.2753 12.9365 75.0715 13.7834 76.0667 13.7834C77.1814 13.7834 77.9777 12.9365 77.9777 11.8779V4.29763C77.9777 3.23897 77.1814 2.39207 76.1862 2.39207C75.0715 2.39207 74.2753 3.23897 74.2753 4.29763ZM18.1825 5.69513V13.2752C18.1825 14.334 18.9786 15.1809 19.974 15.1809C21.0886 15.1809 21.8848 14.334 21.8848 13.2752V5.69513C21.8848 4.63647 21.0886 3.78944 20.0933 3.78944C18.9786 3.78944 18.1825 4.63647 18.1825 5.69513ZM4.84598 9.9299C3.85072 9.9299 3.05451 10.7768 3.05451 11.8355V21.0248H93.1454V11.8355C93.1454 10.7768 92.3492 9.9299 91.3539 9.9299H80.1274V11.8779C80.1274 14.2069 78.336 16.0702 76.1862 16.0702C73.8772 16.0702 72.1255 14.1645 72.1255 11.8779V9.9299H24.0345V13.2752C24.0345 15.6044 22.2431 17.4676 20.0933 17.4676C17.7843 17.4676 16.0326 15.562 16.0326 13.2752V9.9299H4.84598Z" fill="white"/>
<path fill-rule="evenodd" clip-rule="evenodd" d="M83.7499 31.5686C84.347 31.5686 84.8248 32.0768 84.8248 32.712V54.3938C84.8248 55.029 84.347 55.5372 83.7499 55.5372H66.9897V76.0756C66.9897 76.7109 66.512 77.219 65.9149 77.219H12.4097C11.8125 77.219 11.3348 76.7109 11.3348 76.0756V32.712C11.3348 32.0768 11.8125 31.5686 12.4097 31.5686H83.7499ZM13.4846 74.8899H29.1698V66.3358H13.4846V74.8899ZM13.4846 64.049H29.1698V55.4949H13.4846V64.049ZM13.4846 53.2081H29.1698V44.6539H13.4846V53.2081ZM13.4846 42.4095H29.1698V33.8554H13.4846V42.4095ZM31.3196 74.8899H47.0049V66.3358H31.3196V74.8899ZM31.3196 64.049H47.0049V55.4949H31.3196V64.049ZM31.3196 53.2081H47.0049V44.6539H31.3196V53.2081ZM31.3196 42.4095H47.0049V33.8554H31.3196V42.4095ZM49.1547 74.8899H64.8399V66.3358H49.1547V74.8899ZM49.1547 64.049H64.8399V55.4949H49.1547V64.049ZM49.1547 53.2081H64.8399V44.6539H49.1547V53.2081ZM49.1547 42.4095H64.8399V33.8554H49.1547V42.4095ZM66.9897 53.2081H82.675V44.6539H66.9897V53.2081ZM66.9897 42.4095H82.675V33.8554H66.9897V42.4095Z" fill="white"/>
<path d="M88.0095 69.4281V80.2267L93.9413 86.5788C94.3792 87.0022 94.3792 87.7221 93.9413 88.1879C93.7423 88.3997 93.4636 88.5268 93.1849 88.5268C92.9062 88.5268 92.6275 88.3997 92.4286 88.1879L86.1783 81.5394C85.9793 81.3277 85.8598 81.0312 85.8598 80.7348V69.4281C85.8598 68.7929 86.3376 68.2848 86.9347 68.2848C87.5319 68.2848 88.0095 68.7929 88.0095 69.4281Z" fill="white"/>
<path fill-rule="evenodd" clip-rule="evenodd" d="M87.0544 62.9059C77.8582 62.9059 70.4136 70.8672 70.4136 80.6071C70.4136 90.3894 77.898 98.3506 87.0544 98.3506C96.2107 98.3506 103.695 90.3894 103.695 80.6071C103.695 70.8672 96.2506 62.9059 87.0544 62.9059ZM87.0544 96.0639C79.0525 96.0639 72.5236 89.119 72.5236 80.6071C72.5236 72.0953 79.0525 65.1504 87.0544 65.1504C95.0563 65.1504 101.585 72.0953 101.585 80.6071C101.545 89.119 95.0563 96.0639 87.0544 96.0639Z" fill="white"/>
</svg>
