<svg width="73" height="75" viewBox="0 0 73 75" fill="none" xmlns="http://www.w3.org/2000/svg">
<path fill-rule="evenodd" clip-rule="evenodd" d="M25.944 10.0106C32.4708 6.10009 40.4934 6.16844 46.9589 10.1896C53.3609 14.2927 57.2519 21.6156 57.2156 29.4928C57.0666 37.3185 52.8944 44.6746 47.6791 50.3612C44.669 53.6581 41.3017 56.5735 37.6459 59.0476C37.2694 59.2721 36.857 59.4224 36.429 59.4911C36.0171 59.473 35.616 59.3475 35.2618 59.1259C29.6806 55.4083 24.7841 50.6629 20.808 45.118C17.481 40.4895 15.5907 34.8975 15.3941 29.1016C15.3898 21.2092 19.4172 13.9211 25.944 10.0106ZM29.7156 32.3677C30.8135 35.1587 33.405 36.9792 36.28 36.9792C38.1635 36.9932 39.974 36.2152 41.3082 34.8187C42.6424 33.4222 43.3894 31.5232 43.3827 29.5449C43.3928 26.5251 41.6686 23.7967 39.0153 22.6338C36.3621 21.4708 33.303 22.1026 31.2665 24.2342C29.23 26.3658 28.6177 29.5767 29.7156 32.3677Z" fill="white"/>
<path opacity="0.4" d="M36.3051 68.7322C44.5543 68.7322 51.2415 67.353 51.2415 65.6518C51.2415 63.9506 44.5543 62.5714 36.3051 62.5714C28.0559 62.5714 21.3687 63.9506 21.3687 65.6518C21.3687 67.353 28.0559 68.7322 36.3051 68.7322Z" fill="white"/>
</svg>
