<svg width="29" height="30" viewBox="0 0 29 30" fill="none" xmlns="http://www.w3.org/2000/svg">
<path d="M14.4847 18.2983L14.5349 18.249L14.5852 18.2983L20.0249 12.9721C21.5269 11.5015 21.5269 9.11693 20.0249 7.64596C19.2739 6.91063 18.2893 6.54297 17.3051 6.54297C16.3208 6.54297 15.3362 6.91063 14.5852 7.64596L14.5349 7.69519L14.4847 7.64596C13.7336 6.91063 12.7491 6.54297 11.7648 6.54297C10.7805 6.54297 9.79597 6.91063 9.04496 7.64596C7.54295 9.11662 7.54295 11.5011 9.04496 12.9721L14.4847 18.2983ZM13.7976 8.31929L13.8479 8.36852L14.5349 9.04122L15.222 8.36852L15.2723 8.31929C15.8151 7.78773 16.5372 7.49485 17.3047 7.49485C18.0726 7.49485 18.7943 7.78773 19.3372 8.31929C19.8801 8.85084 20.1792 9.55782 20.1792 10.3093C20.1792 11.0612 19.8801 11.7679 19.3372 12.2994L14.5855 16.9525L14.5353 16.9033L14.485 16.9525L9.73232 12.2994C8.61154 11.202 8.61154 9.41636 9.73232 8.31898C10.2752 7.78742 10.9973 7.49453 11.7648 7.49453C12.5327 7.49485 13.2547 7.78742 13.7976 8.31929Z" fill="#1A6226"/>
<path d="M19.3292 20.1997C18.3051 20.7509 17.3381 21.2715 16.7054 22.5456C16.1549 23.6482 15.9178 24.9724 15.9589 26.7126L15.8198 29.5081H16.7926L16.9301 26.7416C16.9307 26.7301 16.9307 26.7185 16.9304 26.707C16.891 25.1167 17.0968 23.9274 17.5783 22.9624C18.0763 21.9595 18.8356 21.5507 19.7966 21.0335C20.0044 20.9216 20.218 20.8066 20.436 20.6817C21.4597 20.0937 22.3332 19.2039 23.1036 18.4187C23.2557 18.2638 23.405 18.1118 23.5523 17.965C23.7171 17.8005 24.4414 17.1452 24.7215 16.8929C25.0196 16.6012 25.5456 16.6012 25.8438 16.8929C26.1544 17.197 26.155 17.6908 25.8457 17.9937L21.712 22.0414C21.5529 22.1972 21.524 22.4396 21.6417 22.6272C21.6723 22.6761 21.7219 22.7496 21.8027 22.8288C21.9924 23.0145 22.3001 23.0145 22.4898 22.8288C22.5865 22.7344 22.6339 22.6097 22.632 22.486L26.5325 18.6667C27.2208 17.9927 27.2201 16.8954 26.5305 16.2205C26.3075 16.0021 26.0325 15.8562 25.7344 15.7796V12.15C25.7344 11.6244 26.1175 11.1769 26.6069 11.1314C26.8809 11.1078 27.1444 11.1922 27.3487 11.3738C27.5508 11.5539 27.6669 11.8088 27.6669 12.073V20.3888C27.6669 20.6153 27.5508 20.815 27.3745 20.9362L27.4168 20.9777C27.4158 20.9786 27.4149 20.9796 27.4139 20.9808L22.7475 25.5507C22.5712 25.7234 22.4118 25.8745 22.2447 25.9764C22.1216 26.0518 22.0395 26.1767 22.0204 26.3175L21.5997 29.5081H22.5687L22.956 26.6497C23.1265 26.521 23.2805 26.3746 23.4349 26.2234L28.1019 21.6538C28.2334 21.5251 28.3692 21.3921 28.4949 21.2397C28.6012 21.111 28.6273 20.9447 28.5799 20.7976C28.6152 20.6664 28.64 20.5312 28.64 20.3891V12.073C28.64 11.5415 28.4081 11.0299 28.0042 10.6703C27.6014 10.311 27.0585 10.1338 26.5172 10.1842C25.5342 10.2752 24.7641 11.1386 24.7641 12.15V15.7986C24.4942 15.879 24.2467 16.0136 24.0503 16.2065C24.0105 16.242 23.0762 17.0829 22.8602 17.2982C22.7106 17.4472 22.5585 17.602 22.4038 17.7597C21.6414 18.5365 20.8528 19.3397 19.9459 19.8607C19.7359 19.9809 19.5297 20.0915 19.3292 20.1997Z" fill="#1A6226"/>
<path d="M5.68409 26.6501L6.07104 29.5085H7.05149L6.61934 26.318C6.60025 26.1771 6.51815 26.0522 6.39499 25.9768C6.22825 25.8749 6.06882 25.7235 5.8922 25.5512L1.22516 20.9815C1.2242 20.9806 1.22325 20.9797 1.22229 20.9784L1.26462 20.937C1.08832 20.8158 0.972169 20.616 0.972169 20.3895V12.0738C0.972169 11.8092 1.088 11.5544 1.29039 11.3743C1.47114 11.2135 1.69803 11.1275 1.93797 11.1275C1.96916 11.1275 2.00035 11.129 2.03185 11.1319C2.52128 11.1773 2.90441 11.6245 2.90441 12.1504V15.7797C2.60656 15.8567 2.3313 16.0025 2.10822 16.2206C1.41863 16.8955 1.418 17.9928 2.10631 18.6668L6.00867 22.488C6.00867 22.6098 6.05736 22.732 6.15283 22.8258C6.34249 23.0115 6.65403 23.0077 6.84369 22.822C6.9172 22.7501 6.96684 22.6765 6.99739 22.6276C7.11545 22.44 7.08617 22.1976 6.92706 22.0418L2.79335 17.9941C2.48404 17.6912 2.48468 17.1974 2.79526 16.8933C3.09344 16.6016 3.6045 16.5876 3.93259 16.9073C4.19767 17.1457 4.92194 17.8009 5.0871 17.9657C5.23412 18.1122 5.38337 18.2642 5.53548 18.4191C6.30621 19.2043 7.17941 20.0941 8.20377 20.6824C8.42112 20.807 8.63464 20.9217 8.84244 21.0339C9.80347 21.5511 10.5628 21.9599 11.0611 22.9638C11.5422 23.9278 11.7481 25.1171 11.7087 26.7074C11.7084 26.719 11.7087 26.7305 11.709 26.742L11.8582 29.5085H12.8196L12.6808 26.713C12.7222 24.9732 12.4848 23.6487 11.9349 22.5469C11.302 21.2716 10.3349 20.7513 9.31086 20.2001C9.11038 20.092 8.9045 19.9814 8.69479 19.8614C7.7869 19.3401 6.99866 18.5369 6.2362 17.7601C6.08155 17.6024 5.92944 17.4476 5.78019 17.299C5.56412 17.0837 4.6295 16.2427 4.60468 16.2209C4.39879 16.0193 4.14739 15.8813 3.87595 15.7999V12.1504C3.87595 11.139 3.10585 10.2756 2.12286 10.1847C1.58093 10.1326 1.03868 10.3115 0.635808 10.6707C0.231984 11.0306 0 11.5419 0 12.0738V20.3895C0 20.5316 0.0245032 20.6668 0.0598258 20.798C0.012729 20.9448 0.0388231 21.1115 0.144791 21.2401C0.270807 21.3928 0.40637 21.5259 0.537796 21.6542L5.20484 26.2239C5.3595 26.3753 5.51352 26.5217 5.68409 26.6501Z" fill="#1A6226"/>
<path d="M14.6701 3.52086C15.2111 3.52086 15.6566 3.08464 15.6566 2.55496V0.965898C15.6566 0.436212 15.2111 0 14.6701 0C14.1291 0 13.6836 0.436212 13.6836 0.965898V2.55496C13.6836 3.08464 14.1291 3.52086 14.6701 3.52086Z" fill="#1A6226"/>
<path d="M20.3627 5.07543C20.681 5.07543 20.9674 4.91964 21.1583 4.67037L22.113 3.39289C22.2721 3.17479 22.3357 2.92552 22.3039 2.67626C22.2721 2.427 22.113 2.20889 21.922 2.0531C21.4765 1.74152 20.8719 1.83499 20.5537 2.27121L19.599 3.54868C19.2808 3.9849 19.3762 4.5769 19.8218 4.88848C19.949 5.01311 20.14 5.07543 20.3627 5.07543Z" fill="#1A6226"/>
<path d="M7.50631 4.67037C7.69724 4.91964 7.98364 5.07543 8.30186 5.07543C8.52462 5.07543 8.71555 5.01311 8.87466 4.88848C9.32017 4.5769 9.41564 3.9849 9.09742 3.54868L8.14275 2.27121C7.82453 1.83499 7.21991 1.74152 6.77439 2.0531C6.32888 2.36468 6.23342 2.95668 6.55164 3.39289L7.50631 4.67037Z" fill="#1A6226"/>
</svg>
