<svg width="23" height="24" viewBox="0 0 23 24" fill="none" xmlns="http://www.w3.org/2000/svg">
<path d="M11.6325 14.4282L11.6729 14.3894L11.7133 14.4282L16.0817 10.2286C17.288 9.06895 17.288 7.18875 16.0817 6.02889C15.4786 5.44908 14.6879 5.15918 13.8975 5.15918C13.1071 5.15918 12.3164 5.44908 11.7133 6.02889L11.6729 6.06771L11.6325 6.02889C11.0294 5.44908 10.2387 5.15918 9.44828 5.15918C8.65784 5.15918 7.86715 5.44908 7.26404 6.02889C6.05782 7.1885 6.05782 9.0687 7.26404 10.2286L11.6325 14.4282ZM11.0808 6.55981L11.1211 6.59862L11.6729 7.12905L12.2246 6.59862L12.265 6.55981C12.701 6.14067 13.2808 5.90973 13.8972 5.90973C14.5139 5.90973 15.0935 6.14067 15.5295 6.55981C15.9655 6.97894 16.2057 7.53639 16.2057 8.12897C16.2057 8.7218 15.9655 9.279 15.5295 9.69813L11.7135 13.3671L11.6731 13.3283L11.6328 13.3671L7.81604 9.69813C6.91597 8.83285 6.91597 7.42485 7.81604 6.55956C8.25202 6.14043 8.83188 5.90949 9.44828 5.90949C10.0649 5.90973 10.6448 6.14043 11.0808 6.55981Z" fill="black"/>
<path d="M15.5229 15.9273C14.7005 16.3619 13.9238 16.7724 13.4158 17.777C12.9737 18.6465 12.7833 19.6906 12.8163 21.0627L12.7046 23.267H13.4858L13.5962 21.0856C13.5967 21.0765 13.5967 21.0674 13.5965 21.0583C13.5648 19.8044 13.7301 18.8666 14.1168 18.1057C14.5167 17.3149 15.1265 16.9925 15.8983 16.5847C16.0651 16.4965 16.2366 16.4059 16.4117 16.3073C17.2338 15.8437 17.9353 15.1421 18.554 14.523C18.6762 14.4009 18.796 14.281 18.9143 14.1652C19.0467 14.0355 19.6284 13.5189 19.8532 13.3199C20.0927 13.0899 20.5151 13.0899 20.7546 13.3199C21.004 13.5596 21.0045 13.949 20.7561 14.1878L17.4365 17.3795C17.3087 17.5023 17.2854 17.6935 17.38 17.8414C17.4045 17.8799 17.4444 17.9379 17.5093 18.0003C17.6616 18.1468 17.9087 18.1468 18.061 18.0003C18.1387 17.9259 18.1768 17.8276 18.1753 17.7301L21.3076 14.7185C21.8604 14.1871 21.8599 13.3218 21.3061 12.7897C21.1269 12.6175 20.9061 12.5025 20.6667 12.442V9.5801C20.6667 9.16564 20.9744 8.81284 21.3674 8.77697C21.5874 8.7583 21.799 8.82488 21.9631 8.96811C22.1254 9.11012 22.2187 9.31108 22.2187 9.51942V16.0764C22.2187 16.255 22.1254 16.4125 21.9838 16.5081L22.0178 16.5407C22.017 16.5415 22.0163 16.5422 22.0155 16.5432L18.268 20.1466C18.1265 20.2827 17.9984 20.4019 17.8643 20.4822C17.7654 20.5416 17.6994 20.6402 17.6841 20.7512L17.3462 23.267H18.1244L18.4354 21.0131C18.5724 20.9116 18.6961 20.7962 18.82 20.677L22.568 17.0739C22.6736 16.9724 22.7827 16.8675 22.8836 16.7474C22.969 16.6459 22.9899 16.5147 22.9519 16.3987C22.9802 16.2953 23.0002 16.1887 23.0002 16.0766V9.51942C23.0002 9.10029 22.8139 8.69688 22.4896 8.41336C22.166 8.13009 21.73 7.9903 21.2953 8.0301C20.5059 8.10184 19.8875 8.78262 19.8875 9.5801V12.457C19.6708 12.5204 19.472 12.6265 19.3143 12.7786C19.2823 12.8066 18.532 13.4697 18.3585 13.6395C18.2384 13.7569 18.1162 13.879 17.992 14.0033C17.3797 14.6158 16.7465 15.2492 16.0181 15.66C15.8495 15.7548 15.6839 15.842 15.5229 15.9273Z" fill="black"/>
<path d="M4.56473 21.0134L4.87549 23.2673H5.66286L5.31581 20.7515C5.30048 20.6405 5.23454 20.542 5.13564 20.4825C5.00173 20.4022 4.8737 20.2828 4.73187 20.1469L0.983889 16.5438C0.983122 16.543 0.982355 16.5423 0.981589 16.5413L1.01558 16.5086C0.874 16.4131 0.780722 16.2556 0.780722 16.077V9.51999C0.780722 9.31141 0.873744 9.11044 1.03628 8.96844C1.18143 8.84167 1.36364 8.77386 1.55633 8.77386C1.58138 8.77386 1.60642 8.77509 1.63172 8.7773C2.02477 8.81317 2.33246 9.16572 2.33246 9.58043V12.4421C2.09326 12.5028 1.8722 12.6178 1.69306 12.7898C1.13927 13.3219 1.13876 14.1872 1.69152 14.7186L4.8254 17.7316C4.8254 17.8277 4.8645 17.924 4.94117 17.998C5.09348 18.1444 5.34367 18.1414 5.49598 17.995C5.55501 17.9383 5.59488 17.8803 5.61941 17.8417C5.71422 17.6938 5.69071 17.5027 5.56293 17.3798L2.24327 14.1882C1.99487 13.9494 1.99538 13.56 2.2448 13.3202C2.48426 13.0902 2.89468 13.0792 3.15816 13.3312C3.37103 13.5192 3.95268 14.0359 4.08531 14.1658C4.20338 14.2813 4.32323 14.4012 4.44539 14.5233C5.06434 15.1424 5.76559 15.8441 6.58822 16.3079C6.76277 16.4062 6.93424 16.4966 7.10112 16.585C7.8729 16.9929 8.48265 17.3152 8.88285 18.1068C9.26925 18.8669 9.4346 19.8047 9.40291 21.0586C9.40265 21.0677 9.40291 21.0768 9.40317 21.0859L9.52302 23.2673H10.2951L10.1836 21.0631C10.2169 19.6912 10.0262 18.6468 9.58461 17.7781C9.07631 16.7725 8.29968 16.3622 7.4773 15.9276C7.3163 15.8423 7.15096 15.7551 6.98254 15.6605C6.25344 15.2495 5.62043 14.6162 5.00812 14.0037C4.88392 13.8794 4.76177 13.7573 4.64191 13.6401C4.46839 13.4703 3.71782 12.8072 3.69789 12.79C3.53254 12.6311 3.33066 12.5222 3.11267 12.4581V9.58043C3.11267 8.78295 2.49422 8.10217 1.70481 8.03043C1.2696 7.9894 0.834133 8.13042 0.5106 8.41369C0.1863 8.69745 0 9.10062 0 9.51999V16.077C0 16.189 0.0196778 16.2956 0.0480445 16.3991C0.0102223 16.5148 0.0311778 16.6462 0.116278 16.7477C0.217478 16.8681 0.326344 16.973 0.431889 17.0742L4.17987 20.6773C4.30407 20.7967 4.42776 20.9122 4.56473 21.0134Z" fill="black"/>
<path d="M11.781 2.77619C12.2154 2.77619 12.5732 2.43224 12.5732 2.01458V0.761611C12.5732 0.343953 12.2154 0 11.781 0C11.3465 0 10.9888 0.343953 10.9888 0.761611V2.01458C10.9888 2.43224 11.3465 2.77619 11.781 2.77619Z" fill="black"/>
<path d="M16.3527 4.00189C16.6082 4.00189 16.8382 3.87905 16.9916 3.68251L17.7582 2.67522C17.886 2.50324 17.9371 2.30669 17.9116 2.11015C17.886 1.9136 17.7582 1.74163 17.6049 1.61879C17.2471 1.37311 16.7616 1.44681 16.506 1.79076L15.7393 2.79806C15.4838 3.14201 15.5605 3.6088 15.9182 3.85448C16.0205 3.95276 16.1738 4.00189 16.3527 4.00189Z" fill="black"/>
<path d="M6.02848 3.68251C6.18181 3.87905 6.41181 4.00189 6.66737 4.00189C6.84625 4.00189 6.99959 3.95276 7.12736 3.85448C7.48514 3.6088 7.56181 3.14201 7.30625 2.79806L6.53959 1.79076C6.28403 1.44681 5.79848 1.37311 5.4407 1.61879C5.08292 1.86447 5.00625 2.33126 5.26181 2.67522L6.02848 3.68251Z" fill="black"/>
</svg>
