<svg width="65" height="65" viewBox="0 0 65 65" fill="none" xmlns="http://www.w3.org/2000/svg">
<path d="M39.4121 34.9721C30.7501 34.2419 24.3197 26.6237 25.049 17.956C25.7783 9.28839 33.392 2.85387 42.054 3.58409C50.7161 4.31385 57.1464 11.9321 56.4171 20.5997C55.6874 29.2674 48.0741 35.7019 39.4121 34.9721Z" stroke="white" stroke-miterlimit="10"/>
<path d="M46.8934 48.5806C38.2313 47.8508 31.8005 40.2326 32.5303 31.565C33.2596 22.8973 40.8733 16.4623 49.5353 17.1925C58.1969 17.9223 64.6277 25.5405 63.8979 34.2082C63.1686 42.8758 55.5554 49.3108 46.8934 48.5806Z" stroke="white" stroke-miterlimit="10"/>
<path d="M15.4584 47.9295C6.79638 47.1993 0.366035 39.581 1.09532 30.9134C1.82461 22.2457 9.43834 15.8112 18.1004 16.5414C26.7624 17.2712 33.1927 24.8894 32.463 33.5571C31.7337 42.2247 24.1204 48.6597 15.4584 47.9295Z" stroke="white" stroke-miterlimit="10"/>
<path d="M23.7462 62.2286C15.0842 61.4984 8.65339 53.8802 9.38314 45.2125C10.1124 36.5449 17.7257 30.1103 26.3877 30.8401C35.0497 31.5703 41.4805 39.1885 40.7508 47.8562C40.0215 56.5239 32.4078 62.9584 23.7462 62.2286Z" stroke="white" stroke-miterlimit="10"/>
<path d="M38.5384 62.1142C29.8764 61.3839 23.4461 53.7662 24.1753 45.0985C24.9046 36.4309 32.5184 29.9959 41.1804 30.7261C49.8424 31.4559 56.2727 39.0741 55.5434 47.7418C54.8137 56.4094 47.2004 62.8444 38.5384 62.1142Z" stroke="white" stroke-miterlimit="10"/>
<path d="M23.3734 34.519C14.7114 33.7887 8.28104 26.1705 9.01033 17.5033C9.73962 8.83565 17.3533 2.40067 26.0154 3.13089C34.6774 3.86065 41.1077 11.4789 40.3784 20.1465C39.6487 28.8142 32.0354 35.2492 23.3734 34.519Z" stroke="white" stroke-miterlimit="10"/>
<path d="M63.9334 32.5128C63.9334 49.903 49.845 64 32.4667 64C15.0879 64 1 49.903 1 32.5128C1 15.1227 15.0879 1.0257 32.4667 1.0257C49.845 1.0257 63.9334 15.1227 63.9334 32.5128Z" stroke="white" stroke-miterlimit="10"/>
<path d="M37.5003 37.9319C30.1983 33.2126 28.1022 23.4631 32.8183 16.1568C37.535 8.85001 47.2777 6.75251 54.5797 11.4722C61.8813 16.1915 63.9779 25.9405 59.2612 33.2473C54.545 40.5541 44.8023 42.6511 37.5003 37.9319Z" stroke="white" stroke-miterlimit="10"/>
<path d="M37.7117 53.4629C30.4097 48.7436 28.314 38.9946 33.0302 31.6878C37.7464 24.381 47.4891 22.2835 54.7911 27.0032C62.0932 31.7225 64.1893 41.4715 59.4731 48.7783C54.7565 56.0851 45.0137 58.1821 37.7117 53.4629Z" stroke="white" stroke-miterlimit="10"/>
<path d="M10.2735 38.0985C2.97145 33.3792 0.875317 23.6302 5.59197 16.3234C10.3082 9.01663 20.0509 6.91913 27.3529 11.6389C34.6549 16.3581 36.7511 26.1072 32.0344 33.4139C27.3182 40.7207 17.5755 42.8178 10.2735 38.0985Z" stroke="white" stroke-miterlimit="10"/>
<path d="M10.8692 54.618C3.56722 49.8988 1.47108 40.1492 6.18773 32.8429C10.9039 25.5362 20.6466 23.4387 27.9487 28.1584C35.2507 32.8776 37.3468 42.6267 32.6306 49.9335C27.914 57.2402 18.1713 59.3373 10.8692 54.618Z" stroke="white" stroke-miterlimit="10"/>
<path d="M23.9776 61.4753C16.6756 56.7561 14.5799 47.007 19.2961 39.7002C24.0123 32.3935 33.7551 30.296 41.0571 35.0157C48.3591 39.7349 50.4552 49.484 45.739 56.7908C41.0224 64.0975 31.2797 66.1946 23.9776 61.4753Z" stroke="white" stroke-miterlimit="10"/>
<path d="M23.559 29.9866C16.2569 25.2673 14.1608 15.5182 18.8775 8.21147C23.5936 0.904695 33.3364 -1.1928 40.6384 3.52691C47.9404 8.24617 50.0365 17.9952 45.3199 25.302C40.6037 32.6088 30.861 34.7058 23.559 29.9866Z" stroke="white" stroke-miterlimit="10"/>
</svg>
