<svg width="29" height="26" viewBox="0 0 29 26" fill="none" xmlns="http://www.w3.org/2000/svg">
<g clip-path="url(#clip0_1_219)">
<path d="M24.5943 10.9152C24.5943 18.1506 14.3457 24.3523 14.3457 24.3523C14.3457 24.3523 4.09698 18.1506 4.09698 10.9152C4.09698 8.44797 5.17675 6.08181 7.09875 4.33723C9.02075 2.59264 11.6275 1.61255 14.3457 1.61255C17.0638 1.61255 19.6706 2.59264 21.5926 4.33723C23.5146 6.08181 24.5943 8.44797 24.5943 10.9152Z" fill="black" stroke="black" stroke-width="1.5" stroke-linecap="round" stroke-linejoin="round"/>
<path d="M14.3457 14.0161C16.2324 14.0161 17.7619 12.6277 17.7619 10.9152C17.7619 9.20261 16.2324 7.8143 14.3457 7.8143C12.4589 7.8143 10.9294 9.20261 10.9294 10.9152C10.9294 12.6277 12.4589 14.0161 14.3457 14.0161Z" fill="black" stroke="white" stroke-linecap="round" stroke-linejoin="round"/>
</g>
<defs>
<clipPath id="clip0_1_219">
<rect width="27.3298" height="24.807" fill="white" transform="translate(0.680786 0.578918)"/>
</clipPath>
</defs>
</svg>
