<svg width="14" height="13" viewBox="0 0 14 13" fill="none" xmlns="http://www.w3.org/2000/svg">
<ellipse cx="6.80069" cy="6.5" rx="6.30996" ry="6.46552" fill="#54C1FF"/>
<path d="M3.85607 6.28448C3.85607 6.09106 4.01287 5.93427 4.20629 5.93427H8.00878L6.33656 4.22082C6.20274 4.0837 6.20467 3.86428 6.3409 3.72954C6.47842 3.59351 6.70039 3.59547 6.83549 3.7339L9.29891 6.25805C9.31326 6.27275 9.31326 6.29621 9.29891 6.31091L6.836 8.83454C6.70133 8.97253 6.47945 8.97252 6.34479 8.83453C6.21511 8.70165 6.21464 8.48973 6.34372 8.35627L8.00878 6.6347H4.20629C4.01287 6.6347 3.85607 6.4779 3.85607 6.28448Z" fill="white"/>
</svg>
