<svg width="29" height="26" viewBox="0 0 29 26" fill="none" xmlns="http://www.w3.org/2000/svg">
    <path d="M27.2793 18.0759C26.7642 17.7946 26.1729 17.7226 25.6152 17.873C23.3502 18.484 20.0373 19.4103 18.9012 19.7287C19.0406 18.6475 18.4297 17.8849 17.0123 17.3936C16.8219 17.3408 12.3255 16.0911 10.0169 15.7179C8.55115 15.4808 1.96775 17.5734 1.22182 17.813C1.05054 17.8679 0.959139 18.0426 1.01772 18.2035C1.07631 18.3641 1.26231 18.4485 1.43407 18.3947C4.29982 17.4749 8.92123 16.1625 9.90551 16.3237C12.1758 16.6905 16.7793 17.9703 16.8052 17.9766C17.935 18.3689 18.3662 18.8813 18.2471 19.6895C18.226 19.8296 18.1841 19.9668 18.1213 20.0992C18.0089 20.34 17.8255 20.5513 17.5908 20.7098C17.2553 20.9353 16.827 21.0211 16.4338 20.9776L15.9492 20.9142L9.79122 19.8786C9.61146 19.8483 9.44258 19.9599 9.41057 20.1268C9.37856 20.294 9.49717 20.4537 9.67533 20.4838L15.8457 21.5212L16.3496 21.5873C16.4547 21.599 16.5549 21.6065 16.6554 21.6065C17.1305 21.6065 17.586 21.4693 17.9731 21.209C18.2757 21.0047 18.5142 20.7353 18.6744 20.4312C18.6791 20.4301 18.6838 20.4313 18.6886 20.43C18.7318 20.4177 23.0422 19.2067 25.7964 18.4638C26.1806 18.3602 26.5904 18.4109 26.9492 18.6073C27.335 18.818 27.6161 19.1728 27.7205 19.5817C27.7505 19.6982 27.7659 19.8167 27.7659 19.9344C27.7659 20.5195 27.4003 21.0556 26.8375 21.2988L25.8079 21.7311L20.4356 23.5956C19.5235 23.9144 18.0874 24.1722 17.1081 24.0452L6.05354 22.3892C5.93743 22.3667 5.46536 22.2776 5.26377 22.2741C5.2435 22.2739 5.21669 22.2792 5.19174 22.283C5.18634 22.2841 5.18071 22.2837 5.17539 22.285C4.54073 22.3989 2.57708 23.6681 1.43407 24.4433C1.28728 24.543 1.25447 24.7351 1.3606 24.8726C1.42463 24.9557 1.52483 24.9999 1.62648 24.9999C1.69306 24.9999 1.76029 24.9809 1.81824 24.9416C3.21488 23.9943 4.91838 22.9466 5.24374 22.8909L17.0085 24.6531L17.0418 24.6573C17.2409 24.6817 17.4522 24.6931 17.6709 24.6931C18.6979 24.6931 19.8799 24.446 20.6639 24.1716L26.0554 22.2999L27.1083 21.8586C27.9061 21.514 28.4216 20.7587 28.4216 19.9344C28.4216 19.7678 28.4001 19.6003 28.3579 19.4373C28.2122 18.8672 27.8191 18.371 27.2793 18.0759Z" fill="#AAD3A4" stroke="#AAD3A4" stroke-width="0.5"/>
    <path d="M18.6487 15.8391L18.7716 15.8856L18.8942 15.8394C19.1401 15.7466 24.941 13.5231 27.5412 9.65454C28.5417 8.16619 28.6966 6.36174 27.977 4.57349C27.3143 2.92634 25.962 1.56872 24.6119 1.19528C23.365 0.85066 22.102 0.969686 21.0548 1.53089C20.0365 2.07649 19.2441 3.01805 18.73 4.28246C18.2139 2.97977 17.4331 2.02456 16.4394 1.49202C15.4453 0.959479 14.2742 0.857114 13.0526 1.19528C11.7573 1.55356 10.4868 2.79681 9.81578 4.36291C9.04952 6.151 9.159 8.07568 10.1161 9.64329C12.4361 13.4442 18.3961 15.743 18.6487 15.8391ZM10.4242 4.5921C11.0232 3.19381 12.1277 2.09195 13.2381 1.78486C13.6464 1.67199 14.0468 1.6157 14.4329 1.6157C15.0365 1.6157 15.6047 1.75304 16.1138 2.02591C17.1792 2.59673 17.9732 3.76117 18.4095 5.39332L18.7274 6.58268L19.0453 5.39332C19.4698 3.8068 20.2769 2.65571 21.3801 2.06464C22.2707 1.58733 23.3525 1.48782 24.4263 1.78486C25.5893 2.10666 26.7697 3.31449 27.3636 4.79053C27.7372 5.71933 28.1854 7.54359 26.9868 9.32673C24.7025 12.7248 19.627 14.8764 18.7722 15.2207C17.9059 14.8704 12.7147 12.6631 10.685 9.33799C9.82826 7.93444 9.73318 6.20474 10.4242 4.5921Z" fill="#AAD3A4" stroke="#AAD3A4" stroke-width="0.5"/>
</svg>
