<svg width="26" height="26" viewBox="0 0 26 26" fill="none" xmlns="http://www.w3.org/2000/svg">
<path d="M15.6327 13.9434C12.3329 13.6652 9.88331 10.763 10.1611 7.46103C10.439 4.15906 13.3394 1.70782 16.6392 1.986C19.939 2.264 22.3886 5.16618 22.1108 8.46814C21.8328 11.7701 18.9325 14.2214 15.6327 13.9434Z" stroke="black" stroke-miterlimit="10"/>
<path d="M18.4833 19.1269C15.1836 18.8489 12.7337 15.9467 13.0117 12.6448C13.2896 9.34281 16.19 6.89138 19.4898 7.16956C22.7894 7.44757 25.2392 10.3497 24.9612 13.6517C24.6834 16.9537 21.7831 19.4051 18.4833 19.1269Z" stroke="black" stroke-miterlimit="10"/>
<path d="M6.50774 18.8769C3.20794 18.5987 0.758305 15.6966 1.03613 12.3946C1.31395 9.09263 4.2144 6.64138 7.51419 6.91956C10.814 7.19757 13.2636 10.0997 12.9856 13.4017C12.7078 16.7037 9.80753 19.1551 6.50774 18.8769Z" stroke="black" stroke-miterlimit="10"/>
<path d="M9.66499 24.3262C6.36519 24.048 3.91538 21.1458 4.19338 17.8438C4.4712 14.5419 7.37147 12.0906 10.6713 12.3686C13.9711 12.6468 16.4209 15.549 16.1429 18.851C15.8651 22.1529 12.9646 24.6042 9.66499 24.3262Z" stroke="black" stroke-miterlimit="10"/>
<path d="M15.2997 24.2832C11.9999 24.005 9.5503 21.103 9.82812 17.801C10.1059 14.4991 13.0064 12.0476 16.3062 12.3258C19.606 12.6038 22.0556 15.506 21.7778 18.808C21.4998 22.1099 18.5995 24.5613 15.2997 24.2832Z" stroke="black" stroke-miterlimit="10"/>
<path d="M9.52336 13.7675C6.22357 13.4894 3.77393 10.5872 4.05175 7.28539C4.32958 3.98343 7.23002 1.53201 10.5298 1.81019C13.8296 2.08819 16.2792 4.99037 16.0014 8.29234C15.7234 11.5943 12.8232 14.0457 9.52336 13.7675Z" stroke="black" stroke-miterlimit="10"/>
<path d="M24.9744 13.0049C24.9744 19.6297 19.6075 25 12.9872 25C6.36677 25 1 19.6297 1 13.0049C1 6.38009 6.36677 1.00979 12.9872 1.00979C19.6075 1.00979 24.9744 6.38009 24.9744 13.0049Z" stroke="black" stroke-miterlimit="10"/>
<path d="M14.9047 15.0706C12.123 13.2728 11.3244 9.55872 13.1211 6.77536C14.9179 3.99183 18.6294 3.19278 21.4111 4.99077C24.1926 6.78858 24.9913 10.5025 23.1945 13.286C21.3979 16.0696 17.6864 16.8684 14.9047 15.0706Z" stroke="black" stroke-miterlimit="10"/>
<path d="M14.9856 20.9847C12.2039 19.1869 11.4055 15.473 13.2022 12.6894C14.9988 9.90589 18.7103 9.10684 21.492 10.9048C24.2737 12.7026 25.0722 16.4166 23.2756 19.2001C21.4788 21.9836 17.7673 22.7825 14.9856 20.9847Z" stroke="black" stroke-miterlimit="10"/>
<path d="M4.53255 15.1331C1.75084 13.3353 0.952321 9.62139 2.74913 6.83786C4.54576 4.05433 8.25725 3.25528 11.0389 5.05327C13.8207 6.85108 14.6192 10.565 12.8224 13.3485C11.0257 16.1321 7.31425 16.9309 4.53255 15.1331Z" stroke="black" stroke-miterlimit="10"/>
<path d="M4.75911 21.4261C1.97741 19.6283 1.17888 15.9142 2.97569 13.1308C4.77232 10.3473 8.48381 9.54825 11.2655 11.3462C14.0472 13.144 14.8457 16.858 13.0491 19.6415C11.2523 22.425 7.54081 23.2239 4.75911 21.4261Z" stroke="black" stroke-miterlimit="10"/>
<path d="M9.75317 24.0394C6.97147 22.2416 6.17312 18.5276 7.96975 15.7441C9.76639 12.9606 13.4779 12.1615 16.2596 13.9595C19.0413 15.7573 19.8398 19.4713 18.0432 22.2548C16.2464 25.0383 12.5349 25.8372 9.75317 24.0394Z" stroke="black" stroke-miterlimit="10"/>
<path d="M9.59407 12.0433C6.81237 10.2455 6.01384 6.53155 7.81065 3.74801C9.60728 0.964483 13.3188 0.165436 16.1005 1.96342C18.8822 3.76124 19.6807 7.47516 17.8839 10.2587C16.0873 13.0422 12.3758 13.8411 9.59407 12.0433Z" stroke="black" stroke-miterlimit="10"/>
</svg>
