<svg width="17" height="26" viewBox="0 0 17 26" fill="none" xmlns="http://www.w3.org/2000/svg">
<path d="M3.79746 6.53334C3.79746 9.62274 5.90594 12.1667 8.53382 12.1667C11.1617 12.1667 13.2702 9.62274 13.2702 6.53334C13.2702 3.44393 11.1617 0.9 8.53382 0.9C5.90594 0.9 3.79746 3.44393 3.79746 6.53334ZM4.67928 6.53334C4.67928 3.96734 6.42307 1.91373 8.53382 1.91373C10.6446 1.91373 12.3884 3.96734 12.3884 6.53334C12.3884 9.09933 10.6446 11.1529 8.53382 11.1529C6.42307 11.1529 4.67928 9.09933 4.67928 6.53334Z" fill="black" stroke="black" stroke-width="0.2"/>
<path d="M0.9 20.5217C0.9 21.6542 1.12959 22.5138 1.54332 23.1637C1.95758 23.8144 2.55077 24.246 3.26148 24.5319C4.67073 25.0987 6.56145 25.0987 8.48404 25.0987H8.5H8.51596C10.4385 25.0987 12.3293 25.0987 13.7385 24.5319C14.4492 24.246 15.0424 23.8144 15.4567 23.1637C15.8704 22.5138 16.1 21.6542 16.1 20.5217C16.1 18.044 15.2187 15.7243 13.83 14.0228C12.4417 12.3216 10.5404 11.232 8.5 11.232C6.45964 11.232 4.55826 12.3216 3.16996 14.0228C1.78133 15.7243 0.9 18.044 0.9 20.5217ZM1.78493 20.5217C1.78493 18.3063 2.57315 16.2275 3.80884 14.7037C5.0449 13.1794 6.72228 12.2175 8.5 12.2175C10.2777 12.2175 11.9551 13.1794 13.1912 14.7037C14.4268 16.2275 15.2151 18.3063 15.2151 20.5217C15.2151 21.3462 15.0796 21.9757 14.8128 22.4584C14.5472 22.9391 14.1467 23.2826 13.6003 23.5281C13.0515 23.7745 12.3564 23.9215 11.5054 24.0064C10.655 24.0911 9.65525 24.1133 8.5 24.1133C7.34475 24.1133 6.34503 24.0911 5.49462 24.0064C4.64364 23.9215 3.94845 23.7745 3.3997 23.5281C2.85325 23.2826 2.4528 22.9391 2.18716 22.4584C1.92041 21.9757 1.78493 21.3462 1.78493 20.5217Z" fill="black" stroke="black" stroke-width="0.2"/>
</svg>
