<svg width="39" height="40" viewBox="0 0 39 40" fill="none" xmlns="http://www.w3.org/2000/svg">
<path d="M36.0561 16.9333H22.7441V3.06667C22.7441 1.37778 21.4214 0 19.8001 0C18.1788 0 16.8561 1.37778 16.8561 3.06667V16.9333H3.5441C1.92276 16.9333 0.600098 18.3111 0.600098 20C0.600098 21.6889 1.92276 23.0667 3.5441 23.0667H16.8561V36.9333C16.8561 38.6222 18.1788 40 19.8001 40C21.4214 40 22.7441 38.6222 22.7441 36.9333V23.0667H36.0561C37.6774 23.0667 39.0001 21.6889 39.0001 20C39.0001 18.3111 37.6774 16.9333 36.0561 16.9333Z" fill="white"/>
</svg>
