<svg width="28" height="32" viewBox="0 0 28 32" fill="none" xmlns="http://www.w3.org/2000/svg">
<path d="M24.1017 21.5611L25.9555 24.2555C22.2563 25.2467 19.4072 27.1017 17.4244 29.9681L15.568 27.2718C16.608 24.5262 20.1139 22.4102 24.1017 21.5611ZM2.72993 10.0038C2.76065 10.2551 2.84515 10.5013 2.99154 10.7344L9.6423 21.2131C10.7583 22.973 11.9469 23.5944 13.4726 24.3184C14.4213 24.7674 14.7012 25.1558 15.2078 26.0196C14.9901 26.3898 14.8075 26.7762 14.6701 27.1771C14.6342 27.2862 14.6526 27.4012 14.7166 27.4987L15.606 28.7889C14.659 29.3941 13.3006 29.6263 11.9959 29.4628C10.7067 29.3008 9.52195 28.7404 8.80199 27.8968L9.50232 25.4592C10.349 25.8619 11.247 26.1649 12.2563 26.147C12.823 26.135 12.8072 25.3624 12.2405 25.3683C11.2734 25.385 10.3891 25.0432 9.46221 24.5592C8.54209 23.9587 7.89255 23.2305 7.211 21.8726L1.95619 11.432C1.69117 10.9061 1.93784 10.3048 2.51654 10.0648C2.58739 10.036 2.65823 10.0201 2.72993 10.0038ZM3.76356 5.79778C3.80368 5.89955 3.8519 5.9982 3.91208 6.09375L5.06563 7.93051C4.63886 7.87574 4.19204 7.93633 3.78789 8.13908L3.27875 7.12574C3.02738 6.62353 3.24077 6.05918 3.76356 5.79778ZM7.0309 1.2422C6.22175 1.66556 5.85729 2.51655 6.05744 3.30385C5.59739 3.23083 5.10575 3.29219 4.67044 3.52058C4.05675 3.84412 3.69442 4.41274 3.64535 5.0136C3.58773 5.01748 3.53183 5.02952 3.48104 5.04972C2.48496 5.46648 2.04496 6.54507 2.50075 7.45122L3.11658 8.67935C2.98983 8.83859 2.89637 9.01493 2.82979 9.20136C2.60318 9.21729 2.374 9.26817 2.15635 9.35672C1.16283 9.77348 0.724539 10.8521 1.18033 11.7563L6.43257 22.1962C7.09791 23.5171 7.84646 24.2963 8.76657 24.9519L7.91303 27.9193C7.87975 28.0308 7.9045 28.15 7.97534 28.2428C8.85577 29.3836 10.3401 30.0415 11.8786 30.2334C13.3522 30.4171 14.8903 30.1767 16.0571 29.4461L16.9998 30.8183C17.1705 31.0665 17.5734 31.0591 17.7334 30.804C19.7072 27.6462 22.643 25.7625 26.6823 24.7934C26.9597 24.7266 27.0865 24.4338 26.9358 24.2128L24.6394 20.869C24.5084 20.681 24.3458 20.6686 24.1857 20.6969C20.6892 21.3161 17.4748 22.9912 15.7212 25.2688C15.2675 24.5728 14.7874 24.0652 13.8673 23.6302C12.3519 22.912 11.416 22.4529 10.3823 20.8224L3.73198 10.344C3.39184 9.80572 3.59029 9.13961 4.18137 8.8285C4.77244 8.51894 5.50179 8.69488 5.84406 9.23321L9.96494 15.7289C10.2534 16.1639 10.976 15.7836 10.705 15.3385L4.65465 5.70884C4.31452 5.16896 4.50785 4.50324 5.09892 4.19407C5.68402 3.88645 6.40825 4.05813 6.75521 4.58247L12.2896 13.3072C12.5695 13.7709 13.33 13.3697 13.0296 12.9188L7.01085 3.43124C6.67071 2.8933 6.86404 2.22797 7.45511 1.91608C8.04619 1.60691 8.78194 1.78247 9.12207 2.3208L14.6393 11.0191C14.921 11.4825 15.6798 11.0816 15.3794 10.6307L10.2223 2.49869L10.6998 2.24584C11.2918 1.93589 12.0267 2.11222 12.3668 2.65055L18.4598 12.2596C18.7308 12.7514 19.531 12.3327 19.1998 11.8712L17.9545 9.90903C17.8328 9.37692 18.2238 8.62847 18.7064 8.36746C19.3748 8.00741 19.7085 8.63235 19.8267 9.03707C20.7485 12.1482 21.8073 13.6474 22.2422 15.4337C22.5824 16.823 22.5341 18.2131 21.987 19.5298C21.7869 20.0149 22.5871 20.2907 22.7872 19.8048C23.3983 18.3319 23.4491 16.7783 23.0783 15.2636C22.6007 13.3134 21.5445 11.8584 20.6534 8.83277C20.4575 8.17287 20.1131 7.72582 19.6308 7.5421C19.1507 7.35761 18.633 7.48112 18.2332 7.72388C17.8171 7.9744 17.4637 8.36125 17.2571 8.8083L13.1068 2.2637C12.8226 1.81238 12.36 1.51098 11.8466 1.38591C11.3332 1.26046 10.7664 1.31289 10.2714 1.57196L9.78911 1.82675C9.50232 1.43485 9.07555 1.16336 8.60227 1.05421C8.07265 0.931091 7.44444 1.0278 7.0309 1.2422Z" fill="black" stroke="black" stroke-width="0.3"/>
</svg>
