<svg width="30" height="24" viewBox="0 0 30 24" fill="none" xmlns="http://www.w3.org/2000/svg">
<path fill-rule="evenodd" clip-rule="evenodd" d="M11.8182 9.00593H16.4298L17.6499 0.947992H17.2727C17.0217 0.947992 16.8182 0.735777 16.8182 0.473996C16.8182 0.212215 17.0217 0 17.2727 0H27.2727C27.5238 0 27.7273 0.212215 27.7273 0.473996C27.7273 0.735777 27.5238 0.947992 27.2727 0.947992H26.8182V10.1004C28.7302 11.3599 30 13.5832 30 16.1159C30 20.0426 26.9474 23.2258 23.1818 23.2258C20.2131 23.2258 17.6876 21.2473 16.7516 18.4858H8.15685C8.17335 18.6415 8.18182 18.7996 8.18182 18.9598C8.18182 21.3159 6.35026 23.2258 4.09091 23.2258C1.83156 23.2258 0 21.3159 0 18.9598C0 17.1024 1.13837 15.5222 2.72727 14.9366V10.4256C2.72727 9.6415 3.33584 9.00593 4.0871 9.00593H10.9091V3.79197C10.9091 3.53019 11.1126 3.31797 11.3636 3.31797C11.6147 3.31797 11.8182 3.53019 11.8182 3.79197V9.00593ZM3.63636 10.4256V14.72C3.78652 14.7026 3.9382 14.6939 4.09091 14.6939C5.84698 14.6939 7.38036 15.8573 7.94902 17.5379H16.5001C16.4097 17.0735 16.3636 16.5978 16.3636 16.1159C16.3636 13.4819 17.7371 11.1825 19.778 9.95392H4.0871C3.83823 9.95392 3.63636 10.1647 3.63636 10.4256ZM4.09091 22.2778C5.84818 22.2778 7.27273 20.7923 7.27273 18.9598C7.27273 17.1274 5.84818 15.6419 4.09091 15.6419C2.33364 15.6419 0.909091 17.1274 0.909091 18.9598C0.909091 20.7923 2.33364 22.2778 4.09091 22.2778ZM23.1818 22.2778C26.4453 22.2778 29.0909 19.519 29.0909 16.1159C29.0909 12.7127 26.4453 9.95392 23.1818 9.95392C19.9183 9.95392 17.2727 12.7127 17.2727 16.1159C17.2727 19.519 19.9183 22.2778 23.1818 22.2778ZM17.3501 9.00593H23.1818C24.1341 9.00593 25.0584 9.21002 25.9091 9.59762V0.947992H18.5702L17.3501 9.00593Z" fill="black"/>
</svg>
