<svg width="29" height="28" viewBox="0 0 29 28" fill="none" xmlns="http://www.w3.org/2000/svg">
<path d="M28.5262 4.19498C28.4519 4.01152 28.2866 3.87713 28.0872 3.83722C27.8878 3.79452 27.6807 3.85659 27.5368 3.9956L23.9924 7.41813L21.3162 4.83414L24.8609 1.41161C25.0051 1.2726 25.0668 1.07263 25.0252 0.880133C24.9836 0.687633 24.8441 0.528092 24.6544 0.456283C23.8552 0.153242 23.013 0 22.151 0C20.3248 0 18.6076 0.686467 17.3164 1.93346C15.4892 3.69769 14.8565 6.29819 15.6509 8.65433L6.46832 17.5211L1.7691 18.7584C1.5629 18.8125 1.40154 18.9686 1.34517 19.1679L0.0212445 23.8545C-0.035666 24.0562 0.0236007 24.2721 0.176993 24.4202L3.7072 27.8291C3.82199 27.9402 3.97622 28 4.13439 28C4.18749 28 4.2409 27.9932 4.2934 27.9795L9.14753 26.7011C9.35372 26.647 9.51509 26.4909 9.57146 26.2916L10.8532 21.7548L20.036 12.888C20.721 13.1034 21.434 13.2127 22.1609 13.2127C23.9887 13.2127 25.7061 12.5263 26.9967 11.2799C28.9206 9.42276 29.5209 6.64166 28.5262 4.19498ZM26.1423 10.455C25.0798 11.481 23.6659 12.0461 22.1608 12.0461C21.4511 12.0461 20.7573 11.9202 20.0991 11.6712C19.8764 11.5874 19.6218 11.6382 19.4519 11.8022L9.88525 21.0393C9.81094 21.1111 9.75723 21.2005 9.7295 21.2985L8.49644 25.6632L4.31376 26.765L1.27944 23.8347L2.42019 19.7963L6.94125 18.6057C7.04275 18.5789 7.13506 18.5271 7.20937 18.4553L16.7757 9.21824C16.9454 9.05415 16.9987 8.80921 16.9111 8.59332C16.094 6.57673 16.5884 4.2861 18.1707 2.75829C19.2339 1.7318 20.6475 1.16667 22.151 1.16667C22.5369 1.16667 22.9177 1.20371 23.2906 1.27773L20.0347 4.42167C19.7987 4.64952 19.7987 5.01865 20.0347 5.24656L23.5652 8.65544C23.7918 8.87419 24.193 8.87419 24.4195 8.65544L27.6757 5.51151C28.0545 7.28367 27.4966 9.1476 26.1423 10.455Z" fill="black"/>
<path d="M5.45857 20.3398C4.79721 20.3398 4.17506 20.5888 3.70751 21.0405C2.74203 21.9725 2.74203 23.4895 3.70751 24.4215C4.17506 24.8732 4.79721 25.1222 5.45857 25.1222C6.11993 25.1222 6.74208 24.8732 7.20962 24.4215C8.17511 23.4895 8.17511 21.9725 7.20962 21.0405C6.74208 20.5888 6.11993 20.3398 5.45857 20.3398ZM6.3553 23.5966C5.87567 24.0592 5.04141 24.0592 4.56171 23.5966C4.06758 23.1192 4.06758 22.3428 4.56171 21.8654C4.80156 21.6341 5.11982 21.5065 5.45851 21.5065C5.79719 21.5065 6.11546 21.6341 6.3553 21.8654C6.84943 22.3428 6.84943 23.1193 6.3553 23.5966Z" fill="black"/>
</svg>
